<svg width="64" height="64" viewBox="0 0 64 64" fill="none" xmlns="http://www.w3.org/2000/svg">
  <rect width="64" height="64" rx="16" fill="#0284C7"/>
  <path d="M19.5 18.5c4-4.8 9-6.3 12.5-2.5 3.5-3.8 8.5-2.3 12.5 2.5 5.7 6.9 3.5 18.3-1.5 27-2.4 4.2-5.8 8.3-8.7 8.3-2 0-2.3-5.4-2.3-11.8 0-3.8-1-6.5-2.6-6.5s-2.6 2.7-2.6 6.5c0 6.4-.3 11.8-2.3 11.8-2.9 0-6.3-4.1-8.7-8.3-5-8.7-7.2-20.1-1.5-27Z" fill="white"/>
  <path d="M19 33c5.3 8.3 21.8 11.2 30.5 1" stroke="#BAE6FD" stroke-width="4" stroke-linecap="round"/>
</svg>
