<svg width="1200" height="630" viewBox="0 0 1200 630" fill="none" xmlns="http://www.w3.org/2000/svg" role="img" aria-labelledby="title desc">
  <title id="title">Nel Orthodontics social preview</title>
  <desc id="desc">Premium orthodontic care in Benoni with Dr Wally Nel.</desc>
  <rect width="1200" height="630" fill="#F8FAFC"/>
  <circle cx="1030" cy="80" r="260" fill="#E0F2FE"/>
  <circle cx="120" cy="590" r="260" fill="#CCFBF1" opacity="0.7"/>
  <rect x="72" y="74" width="1056" height="482" rx="54" fill="white" stroke="#DCECF7" stroke-width="2"/>
  <rect x="126" y="128" width="112" height="112" rx="30" fill="url(#bg)"/>
  <path d="M160 159c6-8 16-11 23-5 7-6 17-3 23 5 10 12 6 31-3 47-5 8-11 15-16 15-4 0-4-9-4-20 0-7-2-11-5-11-2 0-4 4-4 11 0 11-1 20-4 20-6 0-12-7-16-15-9-16-13-35-3-47Z" fill="white"/>
  <path d="M159 187c9 14 37 19 52 2" stroke="#0284C7" stroke-width="6" stroke-linecap="round"/>
  <text x="270" y="169" font-family="Plus Jakarta Sans, Inter, Arial, sans-serif" font-size="31" font-weight="800" fill="#0284C7" letter-spacing="4">NEL ORTHODONTICS</text>
  <text x="126" y="326" font-family="Playfair Display, Georgia, serif" font-size="75" font-weight="800" fill="#0F172A" letter-spacing="-3.5">Confident smiles begin here.</text>
  <text x="130" y="393" font-family="Plus Jakarta Sans, Inter, Arial, sans-serif" font-size="28" font-weight="500" fill="#475569">Premium orthodontic care in Benoni with Dr Wally Nel.</text>
  <text x="130" y="456" font-family="Plus Jakarta Sans, Inter, Arial, sans-serif" font-size="22" font-weight="700" fill="#0369A1">Braces • Early evaluations • Treatment planning • First appointments</text>
  <rect x="782" y="206" width="230" height="182" rx="38" fill="#E0F2FE"/>
  <path d="M835 277c29 38 104 38 133 0" stroke="#0284C7" stroke-width="18" stroke-linecap="round"/>
  <path d="M872 289h60" stroke="white" stroke-width="22" stroke-linecap="round" stroke-dasharray="22 10"/>
  <defs>
    <linearGradient id="bg" x1="142" y1="132" x2="234" y2="239" gradientUnits="userSpaceOnUse">
      <stop stop-color="#38BDF8"/>
      <stop offset="0.52" stop-color="#0284C7"/>
      <stop offset="1" stop-color="#0F766E"/>
    </linearGradient>
  </defs>
</svg>
